<svg width="41" height="41" viewBox="0 0 41 41" fill="none" xmlns="http://www.w3.org/2000/svg">
<path d="M34.1667 5.69531H7.50001C5.65001 5.69531 4.16667 7.17865 4.16667 9.02865V29.0286C4.16667 30.862 5.65001 32.362 7.50001 32.362H14.1667V35.6953H27.5V32.362H34.1667C36 32.362 37.5 30.862 37.5 29.0286V9.02865C37.5 7.17865 36 5.69531 34.1667 5.69531ZM34.1667 29.0286H7.50001V9.02865H34.1667V29.0286Z" fill="#1B52F2"/>
<path d="M24.1667 14.4453H10.8333V16.9453H24.1667V14.4453Z" fill="#1B52F2"/>
<path d="M28.3333 16.9453H30.8333V14.4453H28.3333V12.362H25.8333V19.0286H28.3333V16.9453Z" fill="#1B52F2"/>
<path d="M30.8333 21.112H17.5V23.612H30.8333V21.112Z" fill="#1B52F2"/>
<path d="M13.3333 25.6953H15.8333V19.0286H13.3333V21.112H10.8333V23.612H13.3333V25.6953Z" fill="#1B52F2"/>
</svg>
