<svg width="41" height="41" viewBox="0 0 41 41" fill="none" xmlns="http://www.w3.org/2000/svg">
<path d="M34.4404 14.9469L32.3904 18.0303C33.379 20.0021 33.863 22.1883 33.799 24.3932C33.735 26.598 33.125 28.7525 32.0237 30.6636H8.92372C7.49233 28.1805 6.89921 25.3021 7.23228 22.4554C7.56536 19.6086 8.8069 16.945 10.7728 14.8593C12.7388 12.7737 15.3245 11.377 18.1466 10.8764C20.9687 10.3759 23.877 10.798 26.4404 12.0803L29.5237 10.0303C26.3845 8.01731 22.6609 7.11529 18.9485 7.46851C15.2361 7.82173 11.7495 9.40978 9.04621 11.9786C6.34295 14.5475 4.57932 17.9487 4.03741 21.6383C3.4955 25.3279 4.20663 29.0926 6.05705 32.3303C6.3479 32.8341 6.76553 33.253 7.26844 33.5454C7.77134 33.8378 8.34201 33.9934 8.92372 33.9969H32.0071C32.5944 33.9993 33.172 33.8464 33.6812 33.5537C34.1905 33.261 34.6134 32.839 34.9071 32.3303C36.4427 29.6701 37.2133 26.6374 37.1339 23.5669C37.0545 20.4963 36.1281 17.5075 34.4571 14.9303L34.4404 14.9469Z" fill="#1B52F2"/>
<path d="M18.1237 26.3469C18.4333 26.6569 18.8009 26.9027 19.2056 27.0705C19.6102 27.2382 20.044 27.3246 20.4821 27.3246C20.9201 27.3246 21.3539 27.2382 21.7585 27.0705C22.1632 26.9027 22.5308 26.6569 22.8404 26.3469L32.2737 12.1969L18.1237 21.6303C17.8138 21.9399 17.5679 22.3075 17.4002 22.7121C17.2324 23.1168 17.1461 23.5506 17.1461 23.9886C17.1461 24.4267 17.2324 24.8604 17.4002 25.2651C17.5679 25.6697 17.8138 26.0374 18.1237 26.3469Z" fill="#1B52F2"/>
</svg>
