<svg xmlns="http://www.w3.org/2000/svg" xmlns:xlink="http://www.w3.org/1999/xlink" viewBox="0,0,256,256" width="50px" height="50px"><g fill="#ffffff" fill-rule="nonzero" stroke="none" stroke-width="1" stroke-linecap="butt" stroke-linejoin="miter" stroke-miterlimit="10" stroke-dasharray="" stroke-dashoffset="0" font-family="none" font-weight="none" font-size="none" text-anchor="none" style="mix-blend-mode: normal"><g transform="scale(5.12,5.12)"><path d="M25,2c-12.69141,0 -23,10.30859 -23,23c0,12.69141 10.30859,23 23,23c12.69141,0 23,-10.30859 23,-23c0,-12.69141 -10.30859,-23 -23,-23zM25,4c11.60938,0 21,9.39063 21,21c0,11.60938 -9.39062,21 -21,21c-11.60937,0 -21,-9.39062 -21,-21c0,-11.60937 9.39063,-21 21,-21zM25.57031,11c-7.64453,0 -12.57031,5.41797 -12.57031,10.64844c0,5.10156 2.82422,6.30078 3.41797,6.64453c0.58984,0.34375 1.00781,0.10156 1.14063,-0.37109l0.35547,-1.42187c0,0 0.16406,-0.37891 -0.16406,-0.77734c-0.40234,-0.48437 -1.26953,-1.37109 -1.26953,-3.57422c0,-3.93359 3.10156,-8.21484 8.73047,-8.21484c5.52344,0 7.41406,3.59766 7.41406,6.57422c0,3.70313 -1.77344,9.23828 -5.51562,9.23828c-2.32422,0 -2.99609,-1.79687 -2.99609,-2.67187c-0.01172,-0.30078 0.05469,-0.59766 0.08594,-0.74219c0.02734,-0.14062 0.97266,-3.14844 1.27344,-4.22266c0.67578,-2.40625 0.09766,-4.40625 -2.11328,-4.40625c-3.11719,0 -4.23828,4.38672 -2.87109,7.19141l-2.22266,9.10938c0,0 -0.30859,1.49219 -0.37109,2.37109c-0.08984,1.35156 0.10156,3.34766 0.16797,3.94531c0.04688,0.43359 0.05078,0.64063 0.24609,0.67969c0.19531,0.03516 0.53125,-0.29687 0.80078,-0.69922c0.34375,-0.50391 1.5,-2.13672 1.96875,-3.17578c0.41797,-0.92578 0.49219,-0.94922 0.92578,-2.58984c0.4375,-1.64062 1.02344,-3.94922 1.02344,-3.94922c0,0 1.21875,2.13672 4.51563,2.13672c4.6875,0 9.45703,-4.08203 9.45703,-11.71875c0,-6.1875 -5.35937,-10.00391 -11.42969,-10.00391zM25.57031,11"></path></g></g></svg>