<?xml version="1.0" encoding="UTF-8"?>
<svg width="20px" height="15px" viewBox="0 0 20 15" version="1.1" xmlns="http://www.w3.org/2000/svg" xmlns:xlink="http://www.w3.org/1999/xlink">
    <title>Shape</title>
    <g id="Page-1" stroke="none" stroke-width="1" fill="none" fill-rule="evenodd">
        <g id="Лендинг-Copy" transform="translate(-459.000000, -351.000000)" fill="#E68721" fill-rule="nonzero">
            <g id="Group-Copy" transform="translate(444.000000, 336.000000)">
                <g id="link-solid" transform="translate(15.000000, 15.000000)">
                    <path d="M18.5976669,7.87315785 C20.4674444,6.07115626 20.4674444,3.15287049 18.5976669,1.3508689 C16.9429966,-0.243822778 14.3352362,-0.451132695 12.4323654,0.859703862 L12.3794159,0.894787079 C11.9028709,1.22329356 11.7936626,1.86117023 12.1345247,2.31725205 C12.4753868,2.77333387 13.1372549,2.88177291 13.6104906,2.55326642 L13.6634401,2.5181832 C14.7257384,1.78781442 16.1785389,1.90263222 17.0985356,2.79247017 C18.1409779,3.79712593 18.1409779,5.42371144 17.0985356,6.42836719 L13.3854554,10.0132341 C12.3430132,11.0178898 10.6552494,11.0178898 9.61280715,10.0132341 C8.68950112,9.12339613 8.57036485,7.72325683 9.32820386,6.70265416 L9.3646066,6.65162403 C9.70546869,6.19235283 9.5929511,5.55447616 9.1197154,5.22915905 C8.64647969,4.90384195 7.98130223,5.0090916 7.64374948,5.46517342 L7.60734674,5.51620356 C6.2438984,7.3469096 6.45900554,9.86014368 8.11367585,11.4548354 C9.9834533,13.2568369 13.0115,13.2568369 14.8812774,11.4548354 L18.5976669,7.87315785 Z M1.40233309,7.12684215 C-0.467444362,8.92884374 -0.467444362,11.8471295 1.40233309,13.6491311 C3.05700339,15.2438228 5.6647638,15.4511327 7.56763465,14.1402961 L7.6205841,14.1052129 C8.09712915,13.7767064 8.20633739,13.1388298 7.8654753,12.6827479 C7.52461322,12.2266661 6.8627451,12.1182271 6.38950939,12.4467336 L6.33655994,12.4818168 C5.2742616,13.2121856 3.82146107,13.0973678 2.90146438,12.2075298 C1.85902209,11.1996847 1.85902209,9.57309918 2.90146438,8.56844342 L6.61454455,4.98676592 C7.65698685,3.98211016 9.34475056,3.98211016 10.3871929,4.98676592 C11.3104989,5.87660387 11.4296351,7.27674317 10.6717961,8.30053522 L10.6353934,8.35156535 C10.2945313,8.81083656 10.4070489,9.44871323 10.8802846,9.77403033 C11.3535203,10.0993474 12.0186978,9.99409778 12.3562505,9.53801596 L12.3926533,9.48698583 C13.7561016,7.6530904 13.5409945,5.13985632 11.8863241,3.54516464 C10.0165467,1.74316305 6.98850004,1.74316305 5.11872259,3.54516464 L1.40233309,7.12684215 Z" id="Shape"></path>
                </g>
            </g>
        </g>
    </g>
</svg>